<svg xmlns="http://www.w3.org/2000/svg" xmlns:xlink="http://www.w3.org/1999/xlink" width="227.327" height="91.908" viewBox="0 0 227.327 91.908">
  <defs>
    <filter id="Audi" x="0" y="0" width="227.327" height="91.908" filterUnits="userSpaceOnUse">
      <feOffset dy="3" input="SourceAlpha"/>
      <feGaussianBlur stdDeviation="3" result="blur"/>
      <feFlood flood-color="#0d0d0d" flood-opacity="0.161"/>
      <feComposite operator="in" in2="blur"/>
      <feComposite in="SourceGraphic"/>
    </filter>
  </defs>
  <g transform="matrix(1, 0, 0, 1, 0, 0)" filter="url(#Audi)">
    <path id="Audi-2" data-name="Audi" d="M171.9,0a37.7,37.7,0,0,0-22.411,7.391,37.673,37.673,0,0,0-44.822,0,37.673,37.673,0,0,0-44.822,0A37.167,37.167,0,0,0,37.431,0C16.808,0,0,16.57,0,36.954S16.808,73.908,37.431,73.908a37.7,37.7,0,0,0,22.411-7.391,37.673,37.673,0,0,0,44.822,0,37.167,37.167,0,0,0,22.411,7.391,37.7,37.7,0,0,0,22.411-7.391A37.167,37.167,0,0,0,171.9,73.908c20.623,0,37.431-16.57,37.431-36.954S192.519,0,171.9,0ZM149.485,56.027a28.65,28.65,0,0,1,0-38.146,28.65,28.65,0,0,1,0,38.146Zm-44.822,0a28.65,28.65,0,0,1,0-38.146,28.65,28.65,0,0,1,0,38.146Zm-44.822,0a28.65,28.65,0,0,1,0-38.146,28.725,28.725,0,0,1,7.272,19.073A28.141,28.141,0,0,1,59.842,56.027ZM7.748,36.954C7.748,20.861,21.1,7.748,37.431,7.748A29.506,29.506,0,0,1,54,12.755a36.488,36.488,0,0,0,0,48.4,30.165,30.165,0,0,1-16.57,5.007C21.1,66.16,7.748,53.047,7.748,36.954Zm57.934,24.2a36.488,36.488,0,0,0,0-48.4,30.165,30.165,0,0,1,16.57-5.007,29.224,29.224,0,0,1,16.57,5.007,36.365,36.365,0,0,0-9.3,24.2,35.783,35.783,0,0,0,9.3,24.2,29.922,29.922,0,0,1-33.139,0Zm44.822,0a36.365,36.365,0,0,0,9.3-24.2,35.783,35.783,0,0,0-9.3-24.2,30.165,30.165,0,0,1,16.57-5.007,29.224,29.224,0,0,1,16.57,5.007,36.365,36.365,0,0,0-9.3,24.2,35.783,35.783,0,0,0,9.3,24.2,29.922,29.922,0,0,1-33.139,0ZM171.9,66.16a29.506,29.506,0,0,1-16.57-5.007,36.365,36.365,0,0,0,9.3-24.2,35.783,35.783,0,0,0-9.3-24.2A30.165,30.165,0,0,1,171.9,7.748c16.331,0,29.682,13.113,29.682,29.206S188.227,66.16,171.9,66.16Z" transform="translate(9 6)" fill="#0d0d0d"/>
  </g>
</svg>
