<svg xmlns="http://www.w3.org/2000/svg" xmlns:xlink="http://www.w3.org/1999/xlink" width="158.373" height="158.373" viewBox="0 0 158.373 158.373">
  <defs>
    <filter id="Shape" x="0" y="0" width="158.373" height="158.373" filterUnits="userSpaceOnUse">
      <feOffset dy="3" input="SourceAlpha"/>
      <feGaussianBlur stdDeviation="3" result="blur"/>
      <feFlood flood-color="#0d0d0d" flood-opacity="0.161"/>
      <feComposite operator="in" in2="blur"/>
      <feComposite in="SourceGraphic"/>
    </filter>
    <filter id="W_61_" x="95.954" y="19.249" width="43.133" height="42.968" filterUnits="userSpaceOnUse">
      <feOffset dy="3" input="SourceAlpha"/>
      <feGaussianBlur stdDeviation="3" result="blur-2"/>
      <feFlood flood-color="#0d0d0d" flood-opacity="0.161"/>
      <feComposite operator="in" in2="blur-2"/>
      <feComposite in="SourceGraphic"/>
    </filter>
    <filter id="M_61_" x="59.422" y="8.665" width="38.767" height="35.528" filterUnits="userSpaceOnUse">
      <feOffset dy="3" input="SourceAlpha"/>
      <feGaussianBlur stdDeviation="3" result="blur-3"/>
      <feFlood flood-color="#0d0d0d" flood-opacity="0.161"/>
      <feComposite operator="in" in2="blur-3"/>
      <feComposite in="SourceGraphic"/>
    </filter>
    <filter id="B_x5F_22d_61_" x="19.257" y="22.421" width="41.381" height="41.274" filterUnits="userSpaceOnUse">
      <feOffset dy="3" input="SourceAlpha"/>
      <feGaussianBlur stdDeviation="3" result="blur-4"/>
      <feFlood flood-color="#0d0d0d" flood-opacity="0.161"/>
      <feComposite operator="in" in2="blur-4"/>
      <feComposite in="SourceGraphic"/>
    </filter>
    <filter id="Path" x="28.594" y="28.595" width="59.592" height="59.592" filterUnits="userSpaceOnUse">
      <feOffset dy="3" input="SourceAlpha"/>
      <feGaussianBlur stdDeviation="3" result="blur-5"/>
      <feFlood flood-color="#0d0d0d" flood-opacity="0.161"/>
      <feComposite operator="in" in2="blur-5"/>
      <feComposite in="SourceGraphic"/>
    </filter>
    <filter id="Path-2" x="70.186" y="70.187" width="59.592" height="59.592" filterUnits="userSpaceOnUse">
      <feOffset dy="3" input="SourceAlpha"/>
      <feGaussianBlur stdDeviation="3" result="blur-6"/>
      <feFlood flood-color="#0d0d0d" flood-opacity="0.161"/>
      <feComposite operator="in" in2="blur-6"/>
      <feComposite in="SourceGraphic"/>
    </filter>
    <filter id="Shape-2" x="28.594" y="28.595" width="101.184" height="101.184" filterUnits="userSpaceOnUse">
      <feOffset dy="3" input="SourceAlpha"/>
      <feGaussianBlur stdDeviation="3" result="blur-7"/>
      <feFlood flood-color="#0d0d0d" flood-opacity="0.161"/>
      <feComposite operator="in" in2="blur-7"/>
      <feComposite in="SourceGraphic"/>
    </filter>
  </defs>
  <g id="BMW-logo-grey-fallback-53px" transform="translate(9 6)">
    <g id="BMW-logo">
      <g id="BMW-logo-fallback">
        <g id="BMW_Grey-Colour_RGB-2">
          <g id="BMW_Grey-Colour_RGB">
            <g transform="matrix(1, 0, 0, 1, -9, -6)" filter="url(#Shape)">
              <path id="Shape-3" data-name="Shape" d="M70.186,0a70.186,70.186,0,1,0,70.186,70.186A70.188,70.188,0,0,0,70.186,0Zm65.622,70.186A65.622,65.622,0,1,1,70.186,4.564,65.622,65.622,0,0,1,135.809,70.186Z" transform="translate(9 6)" fill="#0d0d0d"/>
            </g>
            <g id="Group" transform="translate(19.257 8.665)">
              <g transform="matrix(1, 0, 0, 1, -28.26, -14.66)" filter="url(#W_61_)">
                <path id="W_61_2" data-name="W_61_" d="M36.869,25.316c.952,1.015,2.325,2.653,3.1,3.648l14.2-8.95c-.709-.921-1.839-2.322-2.684-3.308l-8.992,5.9-.614.524.458-.663L46.3,14.6l-2.807-2.788-7.928,3.943-.668.454.532-.61L41.38,6.674C40.332,5.79,39.326,4.979,38.044,4L29.031,18.085c1.142.872,2.647,2.154,3.608,3.026l8.485-4.373.544-.4-.4.54Z" transform="translate(75.92 21.25)" fill="#0d0d0d"/>
              </g>
              <g transform="matrix(1, 0, 0, 1, -28.26, -14.66)" filter="url(#M_61_)">
                <path id="M_61_2" data-name="M_61_" d="M27.388,14.048l3.88-8.631.247-.766-.07.8.408,11.534c1.361.127,2.766.315,4.152.545L35.374.446Q32.467.127,29.577,0L25.755,9.421l-.136.7-.136-.7L21.666,0q-2.894.123-5.8.446l-.631,17.082c1.385-.229,2.791-.414,4.152-.545L19.8,5.45l-.07-.8.247.766,3.88,8.631Z" transform="translate(53.18 14.66)" fill="#0d0d0d"/>
              </g>
              <g transform="matrix(1, 0, 0, 1, -28.26, -14.66)" filter="url(#B_x5F_22d_61_)">
                <path id="B_x5F_22d_61_2" data-name="B_x5F_22d_61_" d="M21.009,19.1c2.243-2.346,3.513-5.057,1.27-7.644a4.391,4.391,0,0,0-4.968-1.02l-.169.066.054-.147a4.054,4.054,0,0,0-1.414-4.266,4.247,4.247,0,0,0-3.137-.868c-2.107.213-3.727,1.642-8.139,6.527-1.332,1.474-3.269,3.8-4.432,5.306L12.19,28.468C16.206,24.054,17.843,22.412,21.009,19.1ZM5.2,16.307a74.962,74.962,0,0,1,6.209-6.719,3.2,3.2,0,0,1,1.266-.8,1.5,1.5,0,0,1,1.8,1.155,2.644,2.644,0,0,1-.9,2.227c-1.29,1.445-6.023,6.363-6.023,6.363Zm4.745,4.471s4.609-4.84,6.114-6.387A5.622,5.622,0,0,1,17.451,13.2a1.589,1.589,0,0,1,1.633.033,1.423,1.423,0,0,1,.618,1.507A4.461,4.461,0,0,1,18.511,16.6L12.4,23.092Z" transform="translate(28.18 23.23)" fill="#0d0d0d"/>
              </g>
            </g>
            <g transform="matrix(1, 0, 0, 1, -9, -6)" filter="url(#Path)">
              <path id="Path-3" data-name="Path" d="M52.388,10.8V52.388H10.8A41.573,41.573,0,0,1,52.388,10.8Z" transform="translate(26.8 23.8)" fill="#0d0d0d"/>
            </g>
            <g transform="matrix(1, 0, 0, 1, -9, -6)" filter="url(#Path-2)">
              <path id="Path-4" data-name="Path" d="M68.092,26.5A41.573,41.573,0,0,1,26.5,68.092V26.5Z" transform="translate(52.69 49.69)" fill="#0d0d0d"/>
            </g>
            <g transform="matrix(1, 0, 0, 1, -9, -6)" filter="url(#Shape-2)">
              <path id="Shape-4" data-name="Shape" d="M52.388,10.8v2.28h0A39.356,39.356,0,0,1,91.7,52.388h2.28A41.594,41.594,0,0,0,52.388,10.8h0m0,80.9A39.356,39.356,0,0,1,13.077,52.388H10.8A41.588,41.588,0,0,0,52.388,93.98" transform="translate(26.8 23.8)" fill="#0d0d0d"/>
            </g>
          </g>
        </g>
      </g>
    </g>
  </g>
</svg>
