<?xml version="1.0" encoding="utf-8"?>
<!-- Generator: Adobe Illustrator 25.2.3, SVG Export Plug-In . SVG Version: 6.00 Build 0)  -->
<svg version="1.1" id="Layer_1" xmlns="http://www.w3.org/2000/svg" xmlns:xlink="http://www.w3.org/1999/xlink" x="0px" y="0px"
	 viewBox="0 0 217.3 92.7" style="enable-background:new 0 0 217.3 92.7;" xml:space="preserve">
<style type="text/css">
	.st0{fill:#0D0D0D;}
</style>
<g>
	<path class="st0" d="M108.6,12.1c-50.9,0-92.1,14.1-92.1,31.3c0,17.2,41.2,31.3,92.1,31.3s92.1-14.1,92.1-31.3
		C200.7,26.2,159.5,12.1,108.6,12.1z M61.3,63.9L61.3,63.9c-5.4,0-10.2-3.3-10.8-9.2c-0.3-3,0.6-6.1,2.4-8.5c1.7-2.1,4-3.7,6.7-4.3
		c0.8-0.2,1.6,0,2.2,0.4c0.5,0.4,0.6,1.2,0.1,1.7c-0.1,0.1-0.2,0.2-0.3,0.3c-2.1,1-3.8,2.6-5,4.6c-1,1.8-0.9,4.1,0.3,5.8
		c2.2,3.3,8.3,3.4,13.9-1.9c1.4-1.3,2.7-2.6,3.9-4c2.4-2.7,4.6-5.5,6.6-8.5c0-0.1,0.1-0.1,0-0.2c0-0.1-0.1-0.1-0.2-0.1
		c-2.2,0-4.3,0.8-6,2.1c-0.5,0.4-1.2,0.3-1.7-0.2c0,0,0,0,0,0c-0.3-0.6-0.1-1.4,0.5-1.8c3-2.1,6.3-2.5,9.7-3c0.2,0,0.3-0.1,0.4-0.2
		c1.4-1.8,2.4-3.4,3.9-5.2c1.5-1.7,3.1-3.3,4.9-4.8c1.4-1.2,3-2.3,4.7-3.1c0.4-0.2,0-0.4-0.2-0.4c-7.4-1.4-15.2-3.2-22.6-0.5
		c-5.1,1.9-7.4,6-6.3,8.7c0.8,1.9,3.3,2.2,5.7,1.1c2.1-1,3.8-2.6,5.1-4.5c0.7-1.1,2.2-0.3,1.4,1.6c-2.2,5.1-6.3,9.1-11.3,9.3
		c-3.6,0.2-6.8-2.5-7-6.1c0-0.3,0-0.5,0-0.8c0-7.7,8.6-12.7,17.5-13.5c10.8-0.9,21,2,31.8,3.3c8.1,1.2,16.4,0.8,24.4-0.9
		c0.7-0.2,1.4,0.2,1.6,0.8c0.1,0.2,0.1,0.4,0,0.6c-0.1,1.4-1.2,2.8-3.9,4.3c-3,1.6-6.3,2.3-9.7,2.2c-8.2,0.1-15.8-3.1-23.7-4.8
		c0,0.3,0.1,0.8-0.2,1c-4.4,3.2-8.3,6.5-11,11.1c-0.1,0.1,0,0.2,0.1,0.2c2.3-0.1,4.4-0.2,6.5-0.4c0.4,0,0.4-0.1,0.4-0.4
		c-0.2-1.7,0.4-3.4,1.7-4.6c1.1-1.2,3-1.4,4.4-0.5c1.3,1,1.2,2.9,0.5,4.3c-0.7,1.3-1.8,2.2-3.2,2.6c0,0-0.2,0.1-0.2,0.3
		c0,0.4,1.7,1.3,1.8,1.5c0.1,0.3,0.1,0.6-0.2,0.8c-0.2,0.2-0.5,0.4-0.8,0.4c-0.3,0-0.6-0.1-0.8-0.3c-0.8-0.5-1.6-1.1-2.2-1.8
		c-0.2-0.3-0.3-0.3-0.8-0.2c-2.3,0.1-5.9,0.5-8.4,0.8c-0.6,0.1-0.7,0.2-0.8,0.4c-3.9,6.4-8.1,13.4-12.7,18
		C69.7,62.6,65.7,63.9,61.3,63.9z M167.2,32.6L167.2,32.6c-0.8,1.3-15.4,23.5-16.3,25.8c-0.3,0.7-0.3,1.3,0,1.7
		c0.8,1,2.5,0.4,3.5-0.3c3.2-2.2,5.3-4.8,7.8-7.1c0.2-0.1,0.4-0.1,0.5,0c0.4,0.3,0.9,0.8,1.2,1.1c0,0,0,0,0,0c0.1,0.1,0.1,0.3,0,0.5
		c-2.2,2.8-4.7,5.3-7.5,7.6c-3.9,3-7.8,3.8-9.7,1.9c-0.7-0.7-1.1-1.6-1.2-2.6c0-0.5-0.3-0.5-0.5-0.3c-2.3,2.3-6.3,4.8-9.9,3
		c-3-1.5-3.8-5.1-3.2-8.2c0-0.1-0.1-0.5-0.4-0.2c-0.8,0.6-1.6,1-2.5,1.3c-0.9,0.4-2,0.7-3,0.6c-1.5,0-3-0.8-3.7-2.1
		c-0.5-0.9-0.8-1.9-0.8-2.9c0-0.1-0.1-0.3-0.3,0c-2.5,3.8-4.8,7.5-7.3,11.3c-0.1,0.2-0.3,0.3-0.5,0.3h-4.9c-0.3,0-0.4-0.2-0.3-0.5
		c0.9-1.7,5.6-8.6,8.8-14.4c0.9-1.6,0.7-2.4,0.2-2.8c-0.7-0.4-2,0.2-3.2,1.1c-3.1,2.4-5.8,6.1-7.1,7.8c-1.1,1.6-2.3,3.2-3.6,4.7
		c-3.2,3.5-7.5,5.6-11.7,4.2c-2.2-0.8-3.9-2.6-4.5-4.8c-0.1-0.4-0.4-0.6-0.6-0.3c-0.9,1.1-2,2-3.2,2.8c-0.2,0.2-0.5,0.2-0.7,0.1
		c-0.5-0.5-0.9-1-1.3-1.7c-0.1-0.2,0-0.5,0.1-0.7c1.2-1,2.3-2,3.2-3.1c0.6-0.8,1.1-1.7,1.4-2.6c1-2.5,3.3-7.2,7.8-9.6
		c1.7-0.9,3.5-1.6,5.4-1.8c0.8-0.1,1.5,0,1.8,0.7l0.5,1.3c0,0,0,0.1,0,0.1c0,0.2-0.1,0.4-0.3,0.5c-2.8,1-5.3,2.7-7.2,5.1
		c-2.1,2.8-2.7,6.2-1.3,8.1c1,1.3,2.7,1.8,4.3,1.2c2.5-1,4.5-3,5.5-5.5c1.2-2.8,1.3-5.9,0.5-8.8c-0.2-0.4,0-0.9,0.3-1.1
		c0.6-0.4,1.2-0.8,1.8-1.1c0.5-0.3,1.2-0.1,1.5,0.4c0.9,1.5,1.4,3.3,1.4,5.1c0.1,0.4,0.2,0.4,0.4,0.2c1.5-1.7,3-3.3,4.7-4.8
		c1.5-1.3,3.4-2.1,5.3-2.2c2.4,0.1,3.6,1.7,3.5,4.5c0,0.4,0.2,0.3,0.4,0.1c0.6-0.8,1.2-1.6,2-2.2c1.4-1.3,3.2-1.9,5.1-1.8
		c0.1,0,0.2,0,0.3,0c2.1,0.3,3.5,2.2,3.2,4.3c-0.2,1.4-1,2.7-2.3,3.4c-1.1,0.6-2.4,0.4-3.4-0.4c-0.7-0.7-1-1.7-0.8-2.7
		c0-0.2-0.2-0.4-0.4-0.2c-2.1,2.2-2.3,5-0.9,6.3c1.5,1.4,3.8,0.5,5.5-0.6c3-2,5.4-4.7,8.1-6.8c1.8-1.5,3.9-2.5,6.2-2.9
		c1.3-0.2,2.6,0,3.8,0.4c1.5,0.5,2.5,1.8,2.8,3.3c0,0.4,0.3,0.4,0.5,0.1c1.3-2.1,8.4-12.6,8.9-13.7c0.2-0.3,0.4-0.4,0.7-0.4h5
		C167.2,32.2,167.3,32.4,167.2,32.6z"/>
	<path class="st0" d="M147.5,46.4c-1.7-0.8-4.4,0.7-6.8,3.6c-1.8,2-2.9,4.6-3.1,7.3c-0.1,0.9,0.3,1.8,1.1,2.3
		c1.7,0.9,3.7-0.4,5.2-1.7c1-0.8,1.8-1.7,2.5-2.7c0.7-1,1.4-2.1,2-3.2c0.1-0.2,0.1-0.2,0-0.3c-0.2-0.1-0.4-0.2-0.5-0.4l0,0
		c0-0.1,0-0.2,0-0.3C148.7,49.3,149.3,47.2,147.5,46.4z"/>
	<path class="st0" d="M98.9,35.7c0.8-0.2,1.6-0.7,2-1.5c0.4-0.6,0.7-1.6,0.2-1.9c-0.5-0.3-1.1-0.2-1.5,0.2c-0.8,0.7-1.2,1.8-1.1,2.9
		l0,0C98.6,35.7,98.7,35.7,98.9,35.7z"/>
	<path class="st0" d="M108.6,6C53.3,6,9,22.6,9,43.4C9,64,53.7,80.7,108.6,80.7c54.9,0,99.6-16.8,99.6-37.4
		C208.3,22.8,163.6,6,108.6,6z M108.6,77.5c-52.7,0-95.5-15.3-95.5-34.1c0-18.8,42.7-34.1,95.5-34.1s95.5,15.3,95.5,34.1
		C204.1,62.2,161.3,77.5,108.6,77.5z"/>
</g>
</svg>
