<svg xmlns="http://www.w3.org/2000/svg" xmlns:xlink="http://www.w3.org/1999/xlink" width="217.259" height="92.722" viewBox="0 0 217.259 92.722">
  <defs>
    <filter id="Path_143" x="0" y="0" width="217.259" height="92.722" filterUnits="userSpaceOnUse">
      <feOffset dy="3" input="SourceAlpha"/>
      <feGaussianBlur stdDeviation="3" result="blur"/>
      <feFlood flood-color="#0d0d0d" flood-opacity="0.161"/>
      <feComposite operator="in" in2="blur"/>
      <feComposite in="SourceGraphic"/>
    </filter>
  </defs>
  <g id="ford-logo-flat" transform="translate(8.868 5.868)">
    <g transform="matrix(1, 0, 0, 1, -8.87, -5.87)" filter="url(#Path_143)">
      <path id="Path_143-2" data-name="Path 143" d="M99.761.132C44.466.132.132,16.707.132,37.489c0,20.657,44.7,37.365,99.629,37.365s99.629-16.762,99.629-37.365S154.7.132,99.761.132" transform="translate(8.87 5.87)" fill="#0d0d0d"/>
    </g>
    <g id="Group_145" data-name="Group 145" transform="translate(4.294 3.411)">
      <path id="Path_144" data-name="Path 144" d="M74.837,22.1c.027.178.25.339.463.419.089.027.125.08.036.267a22.556,22.556,0,0,1-1.961,3.244,12.206,12.206,0,0,1-2.5,2.7c-1.479,1.221-3.52,2.54-5.213,1.658a2.58,2.58,0,0,1-1.06-2.29,12,12,0,0,1,3.066-7.263c2.4-2.941,5.044-4.474,6.773-3.645,1.8.864,1.23,2.941.428,4.572a.454.454,0,0,0-.036.339M94.121,3.478c.125-.232,0-.4-.294-.4H88.792c-.374,0-.57.053-.74.4-.579,1.105-7.619,11.647-8.929,13.7-.214.312-.49.267-.517-.089a4.41,4.41,0,0,0-2.843-3.279,7.218,7.218,0,0,0-3.77-.446A13.635,13.635,0,0,0,65.8,16.275c-2.727,2.076-5.079,4.768-8.127,6.764-1.666,1.078-3.939,2.023-5.463.615-1.372-1.274-1.221-4.117.891-6.309.223-.232.49-.036.446.169a2.78,2.78,0,0,0,.8,2.673,2.986,2.986,0,0,0,3.36.356,4.4,4.4,0,0,0,2.335-3.369,3.832,3.832,0,0,0-3.529-4.367,7.039,7.039,0,0,0-5.071,1.836,9.713,9.713,0,0,0-2,2.192c-.178.25-.437.267-.428-.089.08-2.869-1.105-4.482-3.475-4.536a8.845,8.845,0,0,0-5.338,2.174A50.4,50.4,0,0,0,35.484,19.2c-.187.214-.356.2-.419-.2a9.651,9.651,0,0,0-1.4-5.053,1.167,1.167,0,0,0-1.515-.365,9.821,9.821,0,0,0-1.782,1.06,1,1,0,0,0-.3,1.132,13.289,13.289,0,0,1-.49,8.787,9.68,9.68,0,0,1-5.525,5.507,3.629,3.629,0,0,1-4.269-1.158c-1.4-1.943-.838-5.32,1.257-8.136a15.82,15.82,0,0,1,7.191-5.062.417.417,0,0,0,.294-.588l-.472-1.3c-.25-.659-.936-.757-1.764-.668a15.1,15.1,0,0,0-5.418,1.809c-4.518,2.424-6.79,7.111-7.78,9.624a9.8,9.8,0,0,1-1.417,2.62,25.942,25.942,0,0,1-3.244,3.146.57.57,0,0,0-.134.659,7.12,7.12,0,0,0,1.257,1.658.737.737,0,0,0,.7-.143,16.815,16.815,0,0,0,3.181-2.843c.232-.285.481-.16.606.267a7.04,7.04,0,0,0,4.527,4.821c4.144,1.4,8.448-.624,11.692-4.153a47.3,47.3,0,0,0,3.6-4.652c1.337-1.666,3.983-5.382,7.129-7.762,1.158-.882,2.522-1.551,3.208-1.105.553.356.731,1.185-.151,2.8-3.208,5.864-7.931,12.743-8.8,14.419-.16.285-.018.517.285.517h4.866a.6.6,0,0,0,.5-.312c2.46-3.859,4.777-7.53,7.263-11.317.143-.232.267-.053.267.045a6.3,6.3,0,0,0,.8,2.869,4.3,4.3,0,0,0,3.743,2.1A7.022,7.022,0,0,0,56,27.583a10.387,10.387,0,0,0,2.5-1.337c.374-.258.446.178.428.241-.57,3.057.134,6.684,3.181,8.2,3.636,1.782,7.637-.731,9.945-3.012.223-.223.463-.2.49.276A4.281,4.281,0,0,0,73.7,34.579c1.925,1.934,5.819,1.158,9.722-1.862a48.652,48.652,0,0,0,7.5-7.566.327.327,0,0,0-.018-.472c-.356-.374-.882-.8-1.239-1.141a.441.441,0,0,0-.535,0c-2.433,2.317-4.625,4.946-7.78,7.129-1.069.74-2.763,1.337-3.529.312-.3-.4-.267-.954.027-1.693C78.767,27,93.355,4.779,94.121,3.469" transform="translate(59.877 19.888)" fill="#fff"/>
      <path id="Path_145" data-name="Path 145" d="M52.82,18.113c.062.33.2.392.348.356A3.573,3.573,0,0,0,55.2,17.008c.446-.642.651-1.568.214-1.943a1.165,1.165,0,0,0-1.5.178,3.306,3.306,0,0,0-1.1,2.869M15.633,46.71C10.2,46.746,5.4,43.386,4.85,37.558a11.745,11.745,0,0,1,2.433-8.466,12.046,12.046,0,0,1,6.684-4.286,2.5,2.5,0,0,1,2.183.446,1.185,1.185,0,0,1-.187,1.943,11.2,11.2,0,0,0-4.955,4.563,5.6,5.6,0,0,0,.276,5.783c2.183,3.3,8.279,3.386,13.937-1.871a48.914,48.914,0,0,0,3.93-3.992,88.658,88.658,0,0,0,6.639-8.493c.036-.053.053-.125.036-.151-.027-.062-.071-.071-.169-.089a10.2,10.2,0,0,0-6.015,2.13,1.174,1.174,0,0,1-1.658-.178,1.33,1.33,0,0,1,.517-1.782c3.012-2.1,6.309-2.477,9.678-3.048a.6.6,0,0,0,.428-.241c1.381-1.782,2.424-3.377,3.894-5.169a40.221,40.221,0,0,1,4.866-4.75,22.257,22.257,0,0,1,4.687-3.074c.356-.178-.045-.4-.151-.4-7.441-1.4-15.167-3.208-22.555-.472-5.115,1.907-7.361,5.971-6.283,8.68.766,1.925,3.3,2.228,5.668,1.069A12.793,12.793,0,0,0,33.812,11.2c.713-1.114,2.237-.312,1.417,1.622C33.063,17.9,28.937,21.928,23.911,22.1a6.605,6.605,0,0,1-7.04-6.9c.018-7.664,8.555-12.708,17.511-13.465,10.8-.891,21.031,1.987,31.751,3.288a68.985,68.985,0,0,0,24.355-.891,1.255,1.255,0,0,1,1.6,1.4C92,6.956,90.9,8.329,88.18,9.808a19.823,19.823,0,0,1-9.713,2.246c-8.163.071-15.773-3.119-23.66-4.83.009.348.107.757-.178.98-4.367,3.208-8.314,6.479-10.961,11.068-.089.107-.036.214.116.2,2.3-.116,4.358-.178,6.505-.356.365-.027.383-.116.356-.392A5.32,5.32,0,0,1,52.3,14.094a3.406,3.406,0,0,1,4.393-.5c1.337,1.043,1.221,2.932.49,4.34a5.24,5.24,0,0,1-3.172,2.575s-.25.053-.214.276c.045.356,1.666,1.257,1.8,1.5a.757.757,0,0,1-.178.847,1.025,1.025,0,0,1-.784.374,1.561,1.561,0,0,1-.8-.294,7.628,7.628,0,0,1-2.228-1.8c-.214-.258-.321-.267-.829-.232-2.317.134-5.935.481-8.377.784-.6.071-.686.187-.8.392-3.9,6.434-8.074,13.376-12.654,18.028-4.9,4.981-8.983,6.291-13.314,6.327" transform="translate(32.524 7.935)" fill="#fff"/>
      <path id="Path_146" data-name="Path 146" d="M96.067,3.334c-50.875,0-92.108,14.053-92.108,31.261S45.192,65.856,96.067,65.856s92.108-14.062,92.108-31.261S146.933,3.334,96.067,3.334m0,65.356C43.338,68.69.6,53.425.6,34.595S43.338.5,96.067.5s95.459,15.256,95.459,34.095S148.787,68.69,96.067,68.69" transform="translate(-0.599 -0.5)" fill="#fff"/>
    </g>
  </g>
</svg>
