<svg xmlns="http://www.w3.org/2000/svg" xmlns:xlink="http://www.w3.org/1999/xlink" width="249.5" height="58.868" viewBox="0 0 249.5 58.868">
  <defs>
    <filter id="Path_147" x="0" y="0" width="249.5" height="58.868" filterUnits="userSpaceOnUse">
      <feOffset dy="3" input="SourceAlpha"/>
      <feGaussianBlur stdDeviation="3" result="blur"/>
      <feFlood flood-color="#0d0d0d" flood-opacity="0.161"/>
      <feComposite operator="in" in2="blur"/>
      <feComposite in="SourceGraphic"/>
    </filter>
  </defs>
  <g id="lexus-2" transform="translate(-27.7 -1029.8)">
    <g transform="matrix(1, 0, 0, 1, 27.7, 1029.8)" filter="url(#Path_147)">
      <path id="Path_147-2" data-name="Path 147" d="M258.546,1055.108H241.575a4.449,4.449,0,0,1,4.426-4.255h20.014v-4.083h-20.94c-8.338,0-11.762,6.344-11.762,12.43h23.353c.792,0,2.671.172,2.671,2.089s-1.622,2.089-4.417,2.165H230.566v-16.685h-7.174v16.685h-13.68c-4.131,0-4.589-3.043-4.589-4.665v-12.01h-13.05l-10.637,7.088-9.587-7.088h-27.98c-8.338,0-13.346,5.8-14.052,10.847h5.772a13.118,13.118,0,0,0-4.827,5.829l-16.284.01c-4.131,0-4.589-3.043-4.589-4.665v-12.011h-7.174v11.381c0,7.841,5.5,9.387,8.176,9.387h57.343l10.713-7.174,9.721,7.174h11.3l-15.054-11.095,12.383-8.3v10.971c0,7.088,6.926,8.423,8.843,8.423h52.335c2.585,0,9.721-.334,9.721-6.01s-5.275-6.439-9.654-6.439Zm-91.5,8.338H140.063c.21-2.127,2.547-4.255,5.256-4.255H161.25v-4.083h-21.77c.21-2.127,2.547-4.255,5.256-4.255H162.92v-2.375l12.592,9.339-8.462,5.628ZM65.157,1076.668c9.416,0,17.772-3.291,22.953-8.357l-4.665.019c-4.407,3.711-10.856,6.048-18.164,6.048-13.632,0-24.279-8.128-24.279-18.145,0-11.562,10.646-18.144,24.279-18.144.868,0,1.565.4,1.04,1.154-2.833,3.406-10.894,14.386-12.373,16.761-2.9,4.684-2.833,10.465,4.274,10.866h29.9a2.6,2.6,0,0,0,2.471-1.459,15.263,15.263,0,0,0,3.015-9.168c-.01-8.614-6.067-15.073-14.987-18.249l-1.383,2.061c7.412,2.738,12.316,8.261,12.316,16.179a14.084,14.084,0,0,1-.582,4.007c-.334,1.116-.983,2.061-2.2,2.061H62.887c-3.053,0-1.879-3.158-.744-4.684a192.89,192.89,0,0,1,12.8-17.486c.553-.839,2.1-2.576-.038-3.234a42.258,42.258,0,0,0-9.759-1.1c-15.712,0-28.438,8.071-28.447,20.434,0,12.487,12.745,20.434,28.457,20.434Z" transform="translate(-27.7 -1029.8)" fill="#0d0d0d" fill-rule="evenodd"/>
    </g>
  </g>
</svg>
