<?xml version="1.0" encoding="utf-8"?>
<!-- Generator: Adobe Illustrator 25.2.3, SVG Export Plug-In . SVG Version: 6.00 Build 0)  -->
<svg version="1.1" id="Layer_1" xmlns="http://www.w3.org/2000/svg" xmlns:xlink="http://www.w3.org/1999/xlink" x="0px" y="0px"
	 viewBox="0 0 241 47.9" style="enable-background:new 0 0 241 47.9;" xml:space="preserve">
<style type="text/css">
	.st0{filter:url(#Path_147);}
	.st1{fill-rule:evenodd;clip-rule:evenodd;fill:#0D0D0D;}
</style>
<filter  filterUnits="userSpaceOnUse" height="58.868" id="Path_147" width="249.5" x="0" y="0">
	<feOffset  dy="3" input="SourceAlpha"></feOffset>
	<feGaussianBlur  result="blur" stdDeviation="3"></feGaussianBlur>
	<feFlood  flood-color="#0d0d0d" flood-opacity="0.161"></feFlood>
	<feComposite  in2="blur" operator="in"></feComposite>
	<feComposite  in="SourceGraphic" operator="over"></feComposite>
</filter>
<g id="lexus-2" transform="translate(-27.7 -1029.8)">
	<g transform="matrix(1, 0, 0, 1, 27.7, 1029.8)" class="st0">
		<path id="Path_147-2_1_" class="st1" d="M226,23.8h-17c0.1-2.4,2.1-4.2,4.4-4.3h20v-4.1h-20.9c-8.3,0-11.8,6.3-11.8,12.4h23.4
			c0.8,0,2.7,0.2,2.7,2.1s-1.6,2.1-4.4,2.2H198V15.5h-7.2v16.7h-13.7c-4.1,0-4.6-3-4.6-4.7v-12h-13.1l-10.6,7.1l-9.6-7.1h-28
			c-8.3,0-13.3,5.8-14.1,10.8h5.8c-2.1,1.4-3.8,3.5-4.8,5.8l-16.3,0c-4.1,0-4.6-3-4.6-4.7v-12h-7.2v11.4c0,7.8,5.5,9.4,8.2,9.4h57.3
			l10.7-7.2l9.7,7.2h11.3l-15.1-11.1l12.4-8.3v11c0,7.1,6.9,8.4,8.8,8.4h52.3c2.6,0,9.7-0.3,9.7-6S230.3,23.8,226,23.8L226,23.8z
			 M134.5,32.1h-27c0.2-2.1,2.5-4.3,5.3-4.3h15.9v-4.1h-21.8c0.2-2.1,2.5-4.3,5.3-4.3h18.2v-2.4l12.6,9.3L134.5,32.1L134.5,32.1z
			 M32.6,45.4c9.4,0,17.8-3.3,23-8.4l-4.7,0c-4.4,3.7-10.9,6-18.2,6c-13.6,0-24.3-8.1-24.3-18.1c0-11.6,10.6-18.1,24.3-18.1
			c0.9,0,1.6,0.4,1,1.2c-2.8,3.4-10.9,14.4-12.4,16.8c-2.9,4.7-2.8,10.5,4.3,10.9h29.9c1,0.1,2-0.5,2.5-1.5c2-2.6,3-5.9,3-9.2
			C61,16.3,55,9.9,46,6.7l-1.4,2.1C52.1,11.5,57,17,57,24.9c0,1.4-0.2,2.7-0.6,4c-0.3,1.1-1,2.1-2.2,2.1H30.3
			c-3.1,0-1.9-3.2-0.7-4.7c3.9-6.1,8.2-11.9,12.8-17.5c0.6-0.8,2.1-2.6,0-3.2c-3.2-0.7-6.5-1.1-9.8-1.1c-15.7,0-28.4,8.1-28.4,20.4
			C4.1,37.4,16.9,45.3,32.6,45.4L32.6,45.4z"/>
	</g>
</g>
</svg>
