<svg id="Icon_feather-shopping-cart" data-name="Icon feather-shopping-cart" xmlns="http://www.w3.org/2000/svg" width="22.619" height="21.667" viewBox="0 0 22.619 21.667">
  <path id="Path_7" data-name="Path 7" d="M8.333,17.5a.833.833,0,1,1-.833-.833A.833.833,0,0,1,8.333,17.5Z" transform="translate(0.917 2.5)" fill="none" stroke="#f9f9f9" stroke-linecap="round" stroke-linejoin="round" stroke-width="1.667"/>
  <path id="Path_8" data-name="Path 8" d="M17.5,17.5a.833.833,0,1,1-.833-.833A.833.833,0,0,1,17.5,17.5Z" transform="translate(2.619 2.5)" fill="none" stroke="#f9f9f9" stroke-linecap="round" stroke-linejoin="round" stroke-width="1.667"/>
  <path id="Path_9" data-name="Path 9" d="M.833.833h3.81L7.2,14.223a1.929,1.929,0,0,0,1.9,1.61h9.257a1.929,1.929,0,0,0,1.9-1.61l1.524-8.39H5.6" transform="translate(0 0)" fill="none" stroke="#f9f9f9" stroke-linecap="round" stroke-linejoin="round" stroke-width="1.667"/>
</svg>
